<svg xmlns="http://www.w3.org/2000/svg" id="Слой_1" data-name="Слой 1" viewBox="0 0 486.74 219"><defs><style>.cls-1{fill:#972c14;}</style></defs><title>icon-Монтажная область 2</title><path class="cls-1" d="M243.37,219C178.69,219,117.84,207.79,72,187.45,25.58,166.81,0,139.13,0,109.5S25.58,52.19,72,31.56C117.84,11.21,178.69,0,243.37,0S368.9,11.21,414.71,31.56c46.45,20.63,72,48.31,72,77.94s-25.58,57.31-72,77.95C368.9,207.79,308.05,219,243.37,219Zm0-214c-64,0-124.12,11.05-169.31,31.12C29.53,55.91,5,82,5,109.5s24.53,53.59,69.06,73.38C119.25,203,179.37,214,243.37,214S367.5,203,412.68,182.88c44.53-19.79,69.06-45.85,69.06-73.38s-24.53-53.59-69.06-73.38C367.5,16.05,307.37,5,243.37,5ZM79.87,87.14V55.59H73.8q-1.72,20.18-9,31.55ZM66.38,90.75c-1.86,0-3.14.64-3.82,1.94s-1.38,4-2.07,8.22H56.76V87.14h3a50.07,50.07,0,0,0,6.94-14.73,52.21,52.21,0,0,0,2.63-14.53c0-1.49-.26-2.47-.77-2.94a3.56,3.56,0,0,0-2.08-.85V52.23H91.91v1.86a5,5,0,0,0-2.63,1.26c-.45.51-.66,2-.66,4.39v27.4h4.51v13.77H89.41a34.89,34.89,0,0,0-2-8,4,4,0,0,0-4-2.18Zm40-14.42c0,4,.45,7,1.34,9s2.24,3,4.06,3a4,4,0,0,0,2.49-.76,5.4,5.4,0,0,0,1.61-2.19,13.56,13.56,0,0,0,.86-3.46,36.48,36.48,0,0,0,.26-4.54c0-4-.46-7.06-1.34-9.06s-2.22-3-4-3a4,4,0,0,0-3.07,1.22,7.5,7.5,0,0,0-1.7,3.63,29.6,29.6,0,0,0-.54,6.24m5,14.87a16.26,16.26,0,0,1-7.15-1.45,10.43,10.43,0,0,1-4.7-4.66A17.3,17.3,0,0,1,97.76,77a18.62,18.62,0,0,1,1-6.54,12.29,12.29,0,0,1,2.91-4.58,11.63,11.63,0,0,1,4.44-2.67,18,18,0,0,1,5.6-.85q6.82,0,10.3,3.59t3.47,10.54a17.74,17.74,0,0,1-1.72,8.23,11,11,0,0,1-4.91,4.92A16.7,16.7,0,0,1,111.3,91.2Zm28-13.12q0,10.19,5.39,10.18a4.23,4.23,0,0,0,3.87-2.51,14.94,14.94,0,0,0,1.35-7q0-10.31-5.3-10.31c-3.54,0-5.31,3.22-5.31,9.63m-3.73-7.65A12.66,12.66,0,0,1,146,65.19c4,0,7.08,1.08,9.22,3.28s3.2,5.34,3.2,9.44-1.27,7.37-3.81,9.74-6,3.55-10.44,3.55q-13.55,0-13.54-16.85,0-8.91,3.64-14t11.31-6.56a33.75,33.75,0,0,0,6.54-1.59,3.63,3.63,0,0,0,1.67-1.82h3c-.15,3.78-1.05,6.38-2.72,7.81s-4.21,2.37-7.63,2.88a18.68,18.68,0,0,0-8.08,2.81,8.62,8.62,0,0,0-3.29,6.33Zm38.3,11.06A8.81,8.81,0,0,0,175,86.62a4.56,4.56,0,0,0,7.68-1.08,17.77,17.77,0,0,0,1.36-7.78c0-3.73-.4-6.51-1.22-8.32a4,4,0,0,0-3.82-2.7,5.18,5.18,0,0,0-2.48.64,5.31,5.31,0,0,0-1.95,1.85,4.91,4.91,0,0,0-.76,2.7Zm0,14.3a13.17,13.17,0,0,0,.22,3,2.73,2.73,0,0,0,.81,1.39,4.84,4.84,0,0,0,2,.83v1.87H162.85V101a5.07,5.07,0,0,0,1.85-.86,2.89,2.89,0,0,0,.75-1.35,14.32,14.32,0,0,0,.22-3V71.11c0-1.34,0-2.28,0-2.85a7.57,7.57,0,0,0-.2-1.44,2.91,2.91,0,0,0-.44-1,2.25,2.25,0,0,0-.83-.66,6.33,6.33,0,0,0-1.62-.51V62.76l7.81-.23h3.48l-.43,4.09.34.09a18.44,18.44,0,0,1,4.53-3.37,9.7,9.7,0,0,1,4.33-1c3.34,0,5.86,1.17,7.53,3.54s2.51,5.89,2.51,10.59a19.86,19.86,0,0,1-1.48,8.17,10.28,10.28,0,0,1-4.41,4.93,14.47,14.47,0,0,1-7.22,1.66,22.61,22.61,0,0,1-5.7-.73Zm32.66-19.46c0,4,.46,7,1.34,9s2.25,3,4.06,3a4,4,0,0,0,2.49-.76A5.23,5.23,0,0,0,216,85.31a13.56,13.56,0,0,0,.86-3.46,36.48,36.48,0,0,0,.26-4.54c0-4-.46-7.06-1.34-9.06s-2.22-3-4-3a4,4,0,0,0-3.07,1.22,7.5,7.5,0,0,0-1.7,3.63,30.29,30.29,0,0,0-.54,6.24m5,14.87a16.26,16.26,0,0,1-7.15-1.45,10.43,10.43,0,0,1-4.7-4.66A17.3,17.3,0,0,1,197.92,77a18.62,18.62,0,0,1,1-6.54,12.42,12.42,0,0,1,2.91-4.58,11.63,11.63,0,0,1,4.44-2.67,18.07,18.07,0,0,1,5.61-.85c4.54,0,8,1.19,10.29,3.59s3.47,5.91,3.47,10.54A17.74,17.74,0,0,1,224,84.67a11,11,0,0,1-4.91,4.92A16.7,16.7,0,0,1,211.46,91.2ZM248.17,78l-5.36-15.26H230.34v1.86A2.73,2.73,0,0,1,232.58,66a13.33,13.33,0,0,1,.47,4.48V83.07a12.81,12.81,0,0,1-.47,4.39,3.08,3.08,0,0,1-2.27,1.43v1.86h9.37V88.89a3,3,0,0,1-2.24-1.45,12.45,12.45,0,0,1-.47-4.37V75.23c0-2.58-.07-4.82-.2-6.75h.37c.6,2,1.42,4.33,2.48,6.94l4.43,11h4.54l4.63-11.2c1-2.36,1.85-4.6,2.56-6.75h.35c-.09,2.82-.14,5.18-.14,7.06v7.53a13.17,13.17,0,0,1-.46,4.39,3.12,3.12,0,0,1-2.28,1.43v1.86h13.18V88.89a3,3,0,0,1-2.27-1.46,13.58,13.58,0,0,1-.44-4.36V70.48a13.49,13.49,0,0,1,.47-4.49,2.81,2.81,0,0,1,2.27-1.37V62.76H254.18Zm52-7.11a14.8,14.8,0,0,1,.45-4.74,3.46,3.46,0,0,1,2.34-1.55V62.76H289.28v1.86a3,3,0,0,1,2.57,3.3l-9.62,12.42V70.88a15.3,15.3,0,0,1,.46-4.75,3,3,0,0,1,2.22-1.51V62.76h-13.6v1.86a3.57,3.57,0,0,1,2.2,1.37c.38.61.56,2.24.56,4.89v11.8a14.33,14.33,0,0,1-.48,4.7,3.06,3.06,0,0,1-2.28,1.51v1.86h13.6V88.89q-2.6-.44-2.59-3.54L292,72.91V83.8a9,9,0,0,1-.54,3.69,2.81,2.81,0,0,1-2.15,1.4v1.86H303V88.89a3.77,3.77,0,0,1-2.22-1.24c-.42-.59-.63-1.87-.63-3.85Zm18.17,10.58a8.81,8.81,0,0,0,1.19,5.13,4.56,4.56,0,0,0,7.68-1.08,17.61,17.61,0,0,0,1.37-7.78c0-3.73-.41-6.51-1.23-8.32a4,4,0,0,0-3.82-2.7,5.14,5.14,0,0,0-2.47.64,5.34,5.34,0,0,0-2,1.85,4.91,4.91,0,0,0-.76,2.7Zm0,14.3a13.79,13.79,0,0,0,.22,3,2.87,2.87,0,0,0,.81,1.39,4.9,4.9,0,0,0,2,.83v1.87H307.31V101a5,5,0,0,0,1.85-.86,2.73,2.73,0,0,0,.75-1.35,13.65,13.65,0,0,0,.22-3V71.11c0-1.34,0-2.28,0-2.85a6.24,6.24,0,0,0-.2-1.44,2.9,2.9,0,0,0-.43-1,2.21,2.21,0,0,0-.84-.66,6.2,6.2,0,0,0-1.62-.51V62.76l7.81-.23h3.48l-.42,4.09.33.09a18.44,18.44,0,0,1,4.53-3.37,9.73,9.73,0,0,1,4.33-1c3.35,0,5.86,1.17,7.54,3.54s2.51,5.89,2.51,10.59a19.86,19.86,0,0,1-1.48,8.17,10.35,10.35,0,0,1-4.42,4.93A14.47,14.47,0,0,1,324,91.2a22.73,22.73,0,0,1-5.7-.73Zm21.95-24.06h3.47a8.33,8.33,0,0,1,1.05-4.29,3.51,3.51,0,0,1,3.13-1.3h2.48V83.07a11.67,11.67,0,0,1-.53,4.46,3.09,3.09,0,0,1-2.46,1.36v1.86h14.08V88.89a2.94,2.94,0,0,1-2.43-1.3,12.53,12.53,0,0,1-.51-4.52V66.14H361a3.55,3.55,0,0,1,3.15,1.29,8.48,8.48,0,0,1,1,4.3h3.5v-9H340.24Zm55.11-.2Q396.42,69.16,397,68a15.34,15.34,0,0,1,1.06-1.76,4.84,4.84,0,0,1,.94-1,4.45,4.45,0,0,1,1.31-.61V62.76h-11v1.86a3.06,3.06,0,0,1,1.91,1,2.86,2.86,0,0,1,.68,2,8,8,0,0,1-.28,2,20.26,20.26,0,0,1-.85,2.39l-4.49,10.8-4.06-12.33a11.56,11.56,0,0,1-.73-3.53,1.86,1.86,0,0,1,.61-1.52,4.47,4.47,0,0,1,2-.76V62.76H370v1.86a3.53,3.53,0,0,1,1.42.6,3.93,3.93,0,0,1,1,1.28,21.6,21.6,0,0,1,1.25,3.06l7.37,21.19h1.61a42.72,42.72,0,0,1-2.67,4.83,8.18,8.18,0,0,1-1.94,2.22,3.39,3.39,0,0,1-1.94.59,2.22,2.22,0,0,1-1.53-.49,3.78,3.78,0,0,1-.91-1.82h-3.17v6.46a13.94,13.94,0,0,0,4,.53,8.77,8.77,0,0,0,4.66-1.15,12.31,12.31,0,0,0,3.5-3.49A40.45,40.45,0,0,0,386.15,92Zm17.81,10a8.81,8.81,0,0,0,1.19,5.13A4.56,4.56,0,0,0,422,85.54a17.77,17.77,0,0,0,1.36-7.78c0-3.73-.4-6.51-1.22-8.32a4,4,0,0,0-3.82-2.7,5.18,5.18,0,0,0-2.48.64,5.31,5.31,0,0,0-1.95,1.85,4.91,4.91,0,0,0-.76,2.7Zm0,14.3a13.17,13.17,0,0,0,.22,3,2.73,2.73,0,0,0,.81,1.39,4.84,4.84,0,0,0,2,.83v1.87H402.18V101a4.92,4.92,0,0,0,1.84-.86,2.82,2.82,0,0,0,.76-1.35,14.32,14.32,0,0,0,.22-3V71.11c0-1.34,0-2.28,0-2.85a7.57,7.57,0,0,0-.2-1.44,2.91,2.91,0,0,0-.44-1,2.25,2.25,0,0,0-.83-.66,6.33,6.33,0,0,0-1.62-.51V62.76l7.81-.23h3.48l-.43,4.09.34.09a18.6,18.6,0,0,1,4.52-3.37,9.77,9.77,0,0,1,4.34-1c3.34,0,5.85,1.17,7.53,3.54S432,71.74,432,76.44a19.86,19.86,0,0,1-1.48,8.17,10.33,10.33,0,0,1-4.41,4.93,14.47,14.47,0,0,1-7.22,1.66,22.61,22.61,0,0,1-5.7-.73ZM67,138.45a16.4,16.4,0,0,0,4.48.72q7.77,0,7.78-8.79,0-8.46-6.89-8.46a21.06,21.06,0,0,0-5.16.71v3.45h1.68c.45-1.81,1.45-2.71,3-2.71a2.64,2.64,0,0,1,2.47,1.38,11.1,11.1,0,0,1,1,4.48H69.16v1.94h6.12q-.11,6.56-3.63,6.55-2.36,0-3-2.91H67v3.64m30.41.52v-.81a1.74,1.74,0,0,1-1.26-.71,22.39,22.39,0,0,1-1.41-3.06,27.34,27.34,0,0,0-1.28-2.78,3.8,3.8,0,0,0-1.19-1.21,4.55,4.55,0,0,0-2-.66v-.13a5.19,5.19,0,0,0,2.2-2.86,10.68,10.68,0,0,1,.94-1.94,1.3,1.3,0,0,1,1.09-.68c.57,0,.9.38,1,1.13h1.74V122.2a5.3,5.3,0,0,0-1.77-.28,4.64,4.64,0,0,0-2.13.42,3.61,3.61,0,0,0-1.35,1.23,12.06,12.06,0,0,0-1.18,2.73,6.76,6.76,0,0,1-1.32,2.46,2.93,2.93,0,0,1-2.27.86h-.26v-4.39a3.75,3.75,0,0,1,.23-1.65,1.76,1.76,0,0,1,1.1-.65v-.81H81.71v.81a1.71,1.71,0,0,1,1.1.64,3.92,3.92,0,0,1,.22,1.66v10.64a4,4,0,0,1-.23,1.66,1.68,1.68,0,0,1-1.09.63V139h6.48v-.81a1.65,1.65,0,0,1-1.1-.64,3.84,3.84,0,0,1-.23-1.65V131h.25a3,3,0,0,1,1.7.4,3.08,3.08,0,0,1,1,1.27c.27.58.69,1.67,1.26,3.28q.72,2,.9,2.43V139Zm13-16.47a15.57,15.57,0,0,0-2.11-.44,17,17,0,0,0-2.26-.14A8,8,0,0,0,101.8,123a6.81,6.81,0,0,0-2.67,3,11.17,11.17,0,0,0-.9,4.66,12.44,12.44,0,0,0,.77,4.74,5.49,5.49,0,0,0,2.39,2.79,8.36,8.36,0,0,0,4.19.93,17.7,17.7,0,0,0,2.34-.15c.74-.1,1.57-.26,2.47-.47v-3.74H108.7a6.17,6.17,0,0,1-.58,1.7,2.22,2.22,0,0,1-.91.91,3.12,3.12,0,0,1-1.47.3,2.89,2.89,0,0,1-2.68-1.75,11.72,11.72,0,0,1-.91-5.18,12.05,12.05,0,0,1,1-5.55,3.18,3.18,0,0,1,2.95-1.87,2.24,2.24,0,0,1,1.68.66,4.13,4.13,0,0,1,.94,2h1.67V122.5M128.29,139v-.81a1.74,1.74,0,0,1-1.26-.71,23.26,23.26,0,0,1-1.42-3.06,28,28,0,0,0-1.27-2.78,3.8,3.8,0,0,0-1.19-1.21,4.55,4.55,0,0,0-2.05-.66v-.13a5.19,5.19,0,0,0,2.2-2.86,10.06,10.06,0,0,1,.94-1.94,1.3,1.3,0,0,1,1.09-.68c.57,0,.9.38,1,1.13h1.74V122.2a5.32,5.32,0,0,0-1.78-.28,4.62,4.62,0,0,0-2.12.42,3.53,3.53,0,0,0-1.35,1.23,12.06,12.06,0,0,0-1.18,2.73,7.07,7.07,0,0,1-1.32,2.46,2.93,2.93,0,0,1-2.27.86h-.26v-4.39a3.75,3.75,0,0,1,.23-1.65,1.73,1.73,0,0,1,1.1-.65v-.81h-6.48v.81a1.74,1.74,0,0,1,1.1.64,4.09,4.09,0,0,1,.22,1.66v10.64a3.79,3.79,0,0,1-.24,1.66,1.62,1.62,0,0,1-1.08.63V139h6.48v-.81a1.68,1.68,0,0,1-1.11-.64,4,4,0,0,1-.22-1.65V131H118a3,3,0,0,1,1.71.4,3.08,3.08,0,0,1,1,1.27c.27.58.69,1.67,1.26,3.28q.72,2,.9,2.43V139Zm13.1-13.15a14.45,14.45,0,0,1,1.24-2,2.17,2.17,0,0,1,1.23-.85v-.81H139v.81a.89.89,0,0,1,1,1,5.63,5.63,0,0,1-.54,2l-2,4.81-2.11-4.92a6.66,6.66,0,0,1-.65-1.95c0-.54.32-.85,1-.94v-.81H129v.81a1.27,1.27,0,0,1,1,.56,12.21,12.21,0,0,1,1.05,1.94l4.3,9.34c-.73,1.51-1.54,2.26-2.43,2.26s-1.13-.53-1.17-1.58h-1.8v3.46a9.14,9.14,0,0,0,2.32.35,3.68,3.68,0,0,0,2.84-1.17,14.12,14.12,0,0,0,2.22-3.54Zm9.05,4.72h1.06a4.65,4.65,0,0,0,2-.35,2.22,2.22,0,0,0,1.08-1.12,4.91,4.91,0,0,0,.36-2.06,4.86,4.86,0,0,0-.36-2.05,2.11,2.11,0,0,0-1-1.07,4,4,0,0,0-1.74-.32c-.57,0-1,0-1.33,0Zm0,5.35a7.67,7.67,0,0,0,.06,1.15,1.49,1.49,0,0,0,.2.54,1.07,1.07,0,0,0,.41.34,3.29,3.29,0,0,0,.82.24V139h-6.64v-.81a4,4,0,0,0,.72-.27,1,1,0,0,0,.4-.4,1.76,1.76,0,0,0,.16-.64,9,9,0,0,0,0-1V125.23c0-.39,0-.71,0-1a1.63,1.63,0,0,0-.16-.65,1.15,1.15,0,0,0-.39-.4,3.73,3.73,0,0,0-.74-.28v-.81h7.17a8,8,0,0,1,4.68,1.12,3.93,3.93,0,0,1,1.56,3.43,5.5,5.5,0,0,1-.73,2.86,4.68,4.68,0,0,1-2.11,1.83,8.57,8.57,0,0,1-3.46.62c-.8,0-1.45,0-2,0Zm22.45-13.39a15.9,15.9,0,0,0-2.11-.44,17,17,0,0,0-2.26-.14A8,8,0,0,0,164.3,123a6.69,6.69,0,0,0-2.67,3,11.16,11.16,0,0,0-.91,4.66,12.63,12.63,0,0,0,.77,4.74,5.51,5.51,0,0,0,2.4,2.79,8.36,8.36,0,0,0,4.19.93,17.66,17.66,0,0,0,2.33-.15c.75-.1,1.58-.26,2.48-.47v-3.74H171.2a6.52,6.52,0,0,1-.58,1.7,2.28,2.28,0,0,1-.91.91,3.15,3.15,0,0,1-1.47.3,2.88,2.88,0,0,1-2.68-1.75,11.56,11.56,0,0,1-.92-5.18,12,12,0,0,1,1-5.55,3.17,3.17,0,0,1,2.95-1.87,2.21,2.21,0,0,1,1.67.66,4,4,0,0,1,.94,2h1.68V122.5m17,2.74a4,4,0,0,1,.22-1.67,1.71,1.71,0,0,1,1.08-.64v-.81h-6.44v.81a1.74,1.74,0,0,1,1.09.6,3.23,3.23,0,0,1,.22,1.42l-5.84,8.15h-.08q.09-.89.09-2.43v-5.43a3.91,3.91,0,0,1,.23-1.65,1.79,1.79,0,0,1,1.1-.66v-.81h-6.48v.81a1.68,1.68,0,0,1,1.1.64,3.87,3.87,0,0,1,.23,1.66v10.64a3.79,3.79,0,0,1-.24,1.66,1.68,1.68,0,0,1-1.09.63V139h6.48v-.81a1.65,1.65,0,0,1-1.1-.64,4,4,0,0,1-.23-1.65l5.87-8.15h.07c-.07.76-.11,1.87-.11,3.32v4.83a4.21,4.21,0,0,1-.21,1.71,1.76,1.76,0,0,1-1.1.58V139h6.44v-.81c-.58-.15-.95-.35-1.09-.63a4.28,4.28,0,0,1-.21-1.66Zm18.49,0a4,4,0,0,1,.22-1.67,1.71,1.71,0,0,1,1.08-.64v-.81h-6.44v.81a1.74,1.74,0,0,1,1.09.6,3.09,3.09,0,0,1,.22,1.42l-5.84,8.15h-.07c0-.59.08-1.4.08-2.43v-5.43a3.91,3.91,0,0,1,.23-1.65,1.79,1.79,0,0,1,1.11-.66v-.81h-6.48v.81a1.74,1.74,0,0,1,1.1.64,4.09,4.09,0,0,1,.22,1.66v10.64a3.79,3.79,0,0,1-.24,1.66,1.65,1.65,0,0,1-1.08.63V139h6.48v-.81a1.66,1.66,0,0,1-1.11-.64,4,4,0,0,1-.23-1.65l5.87-8.15h.07c-.07.76-.11,1.87-.11,3.32v4.83a4.21,4.21,0,0,1-.21,1.71,1.73,1.73,0,0,1-1.1.58V139h6.44v-.81a1.62,1.62,0,0,1-1.09-.63,4.28,4.28,0,0,1-.21-1.66Zm24.06,0a4,4,0,0,1,.22-1.67,1.71,1.71,0,0,1,1.08-.64v-.81h-6.44v.81a1.74,1.74,0,0,1,1.09.6,3.23,3.23,0,0,1,.22,1.42l-5.84,8.15h-.08q.09-.89.09-2.43v-5.43a3.91,3.91,0,0,1,.23-1.65,1.79,1.79,0,0,1,1.1-.66v-.81h-6.48v.81a1.68,1.68,0,0,1,1.1.64,3.87,3.87,0,0,1,.23,1.66v10.64a3.79,3.79,0,0,1-.24,1.66,1.68,1.68,0,0,1-1.09.63V139h6.48v-.81a1.65,1.65,0,0,1-1.1-.64,4,4,0,0,1-.23-1.65l5.87-8.15h.07c-.07.76-.11,1.87-.11,3.32v4.83a4.21,4.21,0,0,1-.21,1.71,1.76,1.76,0,0,1-1.1.58V139h6.44v-.81c-.58-.15-.95-.35-1.09-.63a4.28,4.28,0,0,1-.21-1.66Zm24.74-3.12H241.73v.81a1.71,1.71,0,0,1,1.1.64,3.92,3.92,0,0,1,.22,1.66v10.64a3.83,3.83,0,0,1-.23,1.66,1.68,1.68,0,0,1-1.09.63V139h6.48v-.81a1.65,1.65,0,0,1-1.1-.64,4,4,0,0,1-.23-1.65v-12.2h5.21v12.2a4.21,4.21,0,0,1-.21,1.71,1.76,1.76,0,0,1-1.1.58V139h6.44v-.81a1.62,1.62,0,0,1-1.09-.63,4.23,4.23,0,0,1-.22-1.66V125.24a4,4,0,0,1,.23-1.67,1.68,1.68,0,0,1,1.08-.64Zm14.11,3.7a15.46,15.46,0,0,1,1.24-2,2.17,2.17,0,0,1,1.23-.85v-.81h-4.89v.81c.65,0,1,.36,1,1a5.48,5.48,0,0,1-.55,2l-2,4.81-2.11-4.92a6.48,6.48,0,0,1-.66-1.95c0-.54.32-.85,1-.94v-.81h-6.59v.81a1.31,1.31,0,0,1,1,.56,12.4,12.4,0,0,1,1,1.94l4.31,9.34c-.74,1.51-1.55,2.26-2.43,2.26s-1.14-.53-1.18-1.58h-1.8v3.46a9.14,9.14,0,0,0,2.32.35,3.68,3.68,0,0,0,2.84-1.17,14.12,14.12,0,0,0,2.22-3.54ZM285.06,139v-.81a3.17,3.17,0,0,1-.68-.17,1.37,1.37,0,0,1-.4-.24,1.14,1.14,0,0,1-.24-.34,1.68,1.68,0,0,1-.14-.55q0-.33,0-1v-12.3h.89a4.72,4.72,0,0,1,.82.05,2,2,0,0,1,.52.16,2.2,2.2,0,0,1,.4.3,2.61,2.61,0,0,1,.35.47,3.52,3.52,0,0,1,.3.67c.09.26.21.67.37,1.23h1.69v-4.33H274.38v4.33h1.69c.09-.37.21-.76.35-1.18a3.51,3.51,0,0,1,.5-1,1.67,1.67,0,0,1,.68-.54,2.88,2.88,0,0,1,1.14-.17h1v12.3a9.21,9.21,0,0,1,0,1,1.52,1.52,0,0,1-.18.66.93.93,0,0,1-.45.4,3.2,3.2,0,0,1-.83.24V139Zm5.85-16.85v.81a3.5,3.5,0,0,1,.74.28,1.15,1.15,0,0,1,.39.4,1.63,1.63,0,0,1,.16.65c0,.26,0,.58,0,1v10.64a9,9,0,0,1,0,1,1.76,1.76,0,0,1-.16.64,1,1,0,0,1-.4.4,4,4,0,0,1-.72.27V139H303l.24-4.5h-1.69c-.15.51-.29.92-.41,1.22a5.22,5.22,0,0,1-.35.71,3.14,3.14,0,0,1-.39.51,1.61,1.61,0,0,1-1,.56,3.85,3.85,0,0,1-.73.05h-2.68v-6.59h1.63a1.85,1.85,0,0,1,.87.16,1.39,1.39,0,0,1,.5.54,4.57,4.57,0,0,1,.38,1.1h1.4v-5h-1.4a4.31,4.31,0,0,1-.39,1.11,1.14,1.14,0,0,1-.51.51,1.84,1.84,0,0,1-.85.16h-1.63v-5.92h2.69a2.8,2.8,0,0,1,1.35.24,2.18,2.18,0,0,1,.67.65,7.39,7.39,0,0,1,.69,1.59h1.7v-3.93ZM328.81,139v-.81a1.74,1.74,0,0,1-1.11-.64,4.21,4.21,0,0,1-.21-1.66V125.22a4,4,0,0,1,.23-1.66,1.64,1.64,0,0,1,1.09-.63v-.81h-6.48v.81a1.62,1.62,0,0,1,1.1.64,4,4,0,0,1,.23,1.65v12.19h-4.59V125.22a3.83,3.83,0,0,1,.23-1.67,1.62,1.62,0,0,1,1.09-.62v-.81h-6.48v.81a1.62,1.62,0,0,1,1.1.64,3.84,3.84,0,0,1,.23,1.65v12.19h-4.59V125.22a4.21,4.21,0,0,1,.21-1.71,1.71,1.71,0,0,1,1.1-.58v-.81h-6.45v.81a1.62,1.62,0,0,1,1.09.62,4,4,0,0,1,.22,1.67v10.63a4,4,0,0,1-.22,1.67,1.71,1.71,0,0,1-1.09.64V139Zm2.38-16.85v.81a3.5,3.5,0,0,1,.74.28,1.15,1.15,0,0,1,.39.4,1.63,1.63,0,0,1,.16.65c0,.26,0,.58,0,1v10.64a9,9,0,0,1,0,1,1.76,1.76,0,0,1-.16.64,1,1,0,0,1-.4.4,4,4,0,0,1-.72.27V139h12.13l.24-4.5h-1.69c-.15.51-.29.92-.41,1.22a5.22,5.22,0,0,1-.35.71,3.14,3.14,0,0,1-.39.51,1.61,1.61,0,0,1-1,.56,3.92,3.92,0,0,1-.73.05h-2.68v-6.59H338a1.85,1.85,0,0,1,.87.16,1.39,1.39,0,0,1,.5.54,4.57,4.57,0,0,1,.38,1.1h1.4v-5h-1.4a4.31,4.31,0,0,1-.39,1.11,1.19,1.19,0,0,1-.51.51,1.84,1.84,0,0,1-.85.16h-1.63v-5.92H339a2.8,2.8,0,0,1,1.35.24,2.18,2.18,0,0,1,.67.65,7.39,7.39,0,0,1,.69,1.59h1.7v-3.93Zm26.61.38a15.9,15.9,0,0,0-2.11-.44,17,17,0,0,0-2.26-.14,8,8,0,0,0-4.22,1.08,6.75,6.75,0,0,0-2.67,3,11.16,11.16,0,0,0-.91,4.66,12.63,12.63,0,0,0,.77,4.74,5.51,5.51,0,0,0,2.4,2.79,8.36,8.36,0,0,0,4.19.93,17.66,17.66,0,0,0,2.33-.15c.75-.1,1.58-.26,2.48-.47v-3.74h-1.69a6.52,6.52,0,0,1-.58,1.7,2.22,2.22,0,0,1-.91.91,3.15,3.15,0,0,1-1.47.3,2.88,2.88,0,0,1-2.68-1.75,11.58,11.58,0,0,1-.91-5.18,12.05,12.05,0,0,1,1-5.55,3.17,3.17,0,0,1,2.95-1.87,2.21,2.21,0,0,1,1.67.66,4,4,0,0,1,.94,2h1.68V122.5M370.34,139v-.81a3.34,3.34,0,0,1-.68-.17,1.37,1.37,0,0,1-.4-.24,1.14,1.14,0,0,1-.24-.34,1.48,1.48,0,0,1-.13-.55,8.2,8.2,0,0,1,0-1v-12.3h.89a4.72,4.72,0,0,1,.82.05,2,2,0,0,1,.52.16,1.68,1.68,0,0,1,.4.3,2.61,2.61,0,0,1,.35.47,3.52,3.52,0,0,1,.3.67c.09.26.22.67.37,1.23h1.7v-4.33H359.66v4.33h1.7c.09-.37.2-.76.34-1.18a3.51,3.51,0,0,1,.5-1,1.7,1.7,0,0,1,.69-.54,2.82,2.82,0,0,1,1.13-.17h1v12.3c0,.39,0,.73,0,1a1.66,1.66,0,0,1-.19.66.93.93,0,0,1-.45.4,3.11,3.11,0,0,1-.82.24V139Zm11-1.48q.74,0,1.68,0a5.3,5.3,0,0,0,1.93-.29,2.24,2.24,0,0,0,1.18-1,3.94,3.94,0,0,0,.42-2,4.56,4.56,0,0,0-.22-1.52,2.34,2.34,0,0,0-.67-1,2.93,2.93,0,0,0-1.06-.57,6,6,0,0,0-1.54-.17h-1.72Zm1.64-8a4.3,4.3,0,0,0,1.94-.36,2.45,2.45,0,0,0,1.07-1,3.79,3.79,0,0,0,.36-1.82,2.94,2.94,0,0,0-.39-1.62,2.24,2.24,0,0,0-1.13-.86,5.53,5.53,0,0,0-1.81-.25c-.57,0-1.14,0-1.68.05v5.88Zm3.84.64a5.71,5.71,0,0,1,2.64,1.58,3.62,3.62,0,0,1,.91,2.47,5.12,5.12,0,0,1-.42,2.15,3.59,3.59,0,0,1-1.26,1.5,5.72,5.72,0,0,1-2,.86,12.93,12.93,0,0,1-2.9.27h-7.61v-.81a4.42,4.42,0,0,0,.73-.27,1,1,0,0,0,.39-.4,1.75,1.75,0,0,0,.17-.64c0-.26,0-.59,0-1V125.23c0-.39,0-.71,0-1a1.63,1.63,0,0,0-.16-.65,1,1,0,0,0-.39-.4,3.5,3.5,0,0,0-.74-.28v-.81h8.09a15.35,15.35,0,0,1,2.26.14,6.17,6.17,0,0,1,2,.64,3,3,0,0,1,1.2,1.16,3.62,3.62,0,0,1,.43,1.79q0,2.79-3.36,4.18Zm20.64-4.9a4.22,4.22,0,0,1,.22-1.67,1.71,1.71,0,0,1,1.09-.64v-.81h-6.45v.81a1.74,1.74,0,0,1,1.09.6,3.09,3.09,0,0,1,.22,1.42l-5.84,8.15h-.07q.09-.89.09-2.43v-5.43a4,4,0,0,1,.22-1.65,1.85,1.85,0,0,1,1.11-.66v-.81h-6.48v.81a1.74,1.74,0,0,1,1.1.64,3.92,3.92,0,0,1,.22,1.66v10.64a4,4,0,0,1-.23,1.66,1.68,1.68,0,0,1-1.09.63V139h6.48v-.81a1.71,1.71,0,0,1-1.11-.64,4,4,0,0,1-.22-1.65l5.86-8.15h.07c-.07.76-.11,1.87-.11,3.32v4.83a4.21,4.21,0,0,1-.21,1.71,1.73,1.73,0,0,1-1.1.58V139h6.45v-.81a1.63,1.63,0,0,1-1.1-.63,4.28,4.28,0,0,1-.21-1.66Zm13.2,5.21v-6.86l-.64,0c-1.57-.06-2.61.21-3.12.83a4.71,4.71,0,0,0,0,5.22,3.31,3.31,0,0,0,2.49.83Zm-1.34,7.71a1.65,1.65,0,0,0,1.11-.63,4,4,0,0,0,.23-1.66v-4h-.59a3.09,3.09,0,0,0-2,.56,6,6,0,0,0-1.46,2.58,28.43,28.43,0,0,1-1.35,3.31V139h-5v-.81c.83-.14,1.54-.93,2.13-2.38l.61-1.46a5.19,5.19,0,0,1,2.87-2.94v-.13q-3.49-1.35-3.5-4.59,0-4.55,6.27-4.54h7.19v.81a1.68,1.68,0,0,0-1.1.64,4,4,0,0,0-.22,1.66v10.64a4,4,0,0,0,.23,1.66,1.65,1.65,0,0,0,1.09.63V139h-6.48ZM86.29,150H80.5l-3.7,10.14L73.38,150H67.24v.82a2.39,2.39,0,0,1,.93.42,1.06,1.06,0,0,1,.31.57,6.07,6.07,0,0,1,.08,1.28v10.68a9.15,9.15,0,0,1,0,1,1.57,1.57,0,0,1-.16.63,1,1,0,0,1-.4.39,3.1,3.1,0,0,1-.73.28v.81h4.67V166a2.11,2.11,0,0,1-.9-.4,1.14,1.14,0,0,1-.35-.59,6.21,6.21,0,0,1-.08-1.27v-5.68c0-1.85,0-3.46-.13-4.81h.22c.16.56.34,1.12.55,1.69l3.48,10h2.17L80.18,156c.3-.81.51-1.37.62-1.69s.22-.64.32-1h.26c0,.38,0,1-.08,1.93s0,1.69,0,2.35v6.05a8.28,8.28,0,0,1-.06,1.2,1.43,1.43,0,0,1-.17.55.85.85,0,0,1-.33.29A4.61,4.61,0,0,1,80,166v.81h6.33V166a2.12,2.12,0,0,1-.93-.42,1.2,1.2,0,0,1-.3-.66,6.32,6.32,0,0,1-.08-1.19V153.06a6.17,6.17,0,0,1,.09-1.29,1.18,1.18,0,0,1,.33-.58,2.18,2.18,0,0,1,.89-.4Zm7.3,10.19H98l-2-6.95Zm4.8,1.44H93.12l-.41,1.17c-.11.33-.21.65-.28,1a3.93,3.93,0,0,0-.11,1A1.19,1.19,0,0,0,93.6,166v.81H88.33V166a1.46,1.46,0,0,0,.8-.33,2.7,2.7,0,0,0,.63-.73,9,9,0,0,0,.61-1.35l5.14-13.72h3.3l4.07,13.83a10.16,10.16,0,0,0,.46,1.32,1.75,1.75,0,0,0,.48.62,2.06,2.06,0,0,0,.83.36v.81H97.83V166a1.64,1.64,0,0,0,1-.36,1,1,0,0,0,.31-.8A5.61,5.61,0,0,0,99,164c-.06-.31-.15-.7-.29-1.18Zm20.37-11.24a14.52,14.52,0,0,0-2.11-.45,17.22,17.22,0,0,0-2.26-.14,7.93,7.93,0,0,0-4.22,1.08,6.74,6.74,0,0,0-2.67,3.05,11.07,11.07,0,0,0-.91,4.66,12.63,12.63,0,0,0,.77,4.74,5.49,5.49,0,0,0,2.39,2.79,8.43,8.43,0,0,0,4.2.93,17.66,17.66,0,0,0,2.33-.15,23.56,23.56,0,0,0,2.48-.47v-3.74h-1.69a6.57,6.57,0,0,1-.59,1.71,2.23,2.23,0,0,1-.9.9,3.15,3.15,0,0,1-1.47.3,2.88,2.88,0,0,1-2.68-1.75,11.56,11.56,0,0,1-.92-5.18,12.07,12.07,0,0,1,1-5.55,3.15,3.15,0,0,1,2.94-1.87,2.21,2.21,0,0,1,1.68.66,4.17,4.17,0,0,1,.94,2.05h1.68v-3.57m13.48,16.46V166a2.67,2.67,0,0,1-.68-.17,1.37,1.37,0,0,1-.4-.24,1.08,1.08,0,0,1-.24-.33,1.59,1.59,0,0,1-.13-.55,8.5,8.5,0,0,1,0-1v-12.3h.89a4.72,4.72,0,0,1,.82.05,2,2,0,0,1,.52.17,1.55,1.55,0,0,1,.4.3,2.21,2.21,0,0,1,.35.46,3.52,3.52,0,0,1,.3.67c.09.27.21.67.37,1.23h1.69V150H121.56v4.33h1.7a11.46,11.46,0,0,1,.34-1.18,3.51,3.51,0,0,1,.5-1,1.72,1.72,0,0,1,.69-.54,2.82,2.82,0,0,1,1.13-.17h1v12.3a9.41,9.41,0,0,1,0,1,1.6,1.6,0,0,1-.18.66,1,1,0,0,1-.45.4,3.59,3.59,0,0,1-.82.23v.81ZM139,150v.82a3.07,3.07,0,0,1,.74.27,1,1,0,0,1,.39.4,1.48,1.48,0,0,1,.16.65c0,.26,0,.58,0,1v10.64c0,.4,0,.73,0,1a1.87,1.87,0,0,1-.17.64.87.87,0,0,1-.39.39,3.67,3.67,0,0,1-.73.27v.81h12.14l.23-4.5h-1.69c-.15.52-.28.92-.4,1.22a6,6,0,0,1-.36.72,2.64,2.64,0,0,1-.38.5,1.88,1.88,0,0,1-.45.37,1.86,1.86,0,0,1-.53.19,3.77,3.77,0,0,1-.73.06h-2.68v-6.59h1.63a1.79,1.79,0,0,1,.87.16,1.29,1.29,0,0,1,.5.53,4.68,4.68,0,0,1,.39,1.1H149v-5h-1.39a4.61,4.61,0,0,1-.4,1.12,1.25,1.25,0,0,1-.51.51,2,2,0,0,1-.85.15h-1.63v-5.92h2.69a2.77,2.77,0,0,1,1.35.24,2.33,2.33,0,0,1,.68.65,7.64,7.64,0,0,1,.69,1.59h1.69V150Zm20.7,8.42h1.06a4.65,4.65,0,0,0,2-.35,2.19,2.19,0,0,0,1.08-1.12,4.91,4.91,0,0,0,.36-2.06,4.78,4.78,0,0,0-.36-2,2.09,2.09,0,0,0-1-1.08,4,4,0,0,0-1.74-.32l-1.33,0Zm0,5.35a7.58,7.58,0,0,0,.06,1.15,1.36,1.36,0,0,0,.2.54,1.07,1.07,0,0,0,.41.34,3.29,3.29,0,0,0,.82.24v.81h-6.64V166a3.33,3.33,0,0,0,.72-.27.89.89,0,0,0,.4-.39,1.87,1.87,0,0,0,.16-.64,9.09,9.09,0,0,0,0-1V153.08c0-.39,0-.71,0-1a1.63,1.63,0,0,0-.16-.65,1.15,1.15,0,0,0-.39-.4,3.24,3.24,0,0,0-.74-.27V150h7.17a8,8,0,0,1,4.68,1.12,3.94,3.94,0,0,1,1.56,3.44,5.49,5.49,0,0,1-.73,2.85,4.62,4.62,0,0,1-2.11,1.83,8.39,8.39,0,0,1-3.46.63c-.8,0-1.45,0-2-.05Zm16.32-5H170.2v2.59h5.85Zm19.12,8V166a1.72,1.72,0,0,1-1.26-.7,23,23,0,0,1-1.42-3.07,23.93,23.93,0,0,0-1.28-2.77,3.7,3.7,0,0,0-1.18-1.22,4.68,4.68,0,0,0-2.06-.66v-.13a5.12,5.12,0,0,0,2.2-2.86,9.87,9.87,0,0,1,1-1.93,1.29,1.29,0,0,1,1.09-.69c.57,0,.9.38,1,1.13h1.74v-3.05a5.05,5.05,0,0,0-1.77-.29,4.46,4.46,0,0,0-2.12.43,3.45,3.45,0,0,0-1.36,1.22,12.44,12.44,0,0,0-1.18,2.74,6.94,6.94,0,0,1-1.31,2.45,2.9,2.9,0,0,1-2.27.87h-.27v-4.4a3.71,3.71,0,0,1,.24-1.65,1.72,1.72,0,0,1,1.1-.64V150h-6.48v.82a1.64,1.64,0,0,1,1.09.63,3.9,3.9,0,0,1,.23,1.66v10.64a3.81,3.81,0,0,1-.24,1.67,1.64,1.64,0,0,1-1.08.62v.81H186V166a1.62,1.62,0,0,1-1.11-.64,4,4,0,0,1-.23-1.65v-4.9h.25a2.56,2.56,0,0,1,2.7,1.67c.28.58.69,1.68,1.26,3.28q.73,2,.9,2.43v.62Zm17.94-.81a1.92,1.92,0,0,1-1.17-.62,4.14,4.14,0,0,1-.26-1.86V153.26a4,4,0,0,1,.27-1.91,2.18,2.18,0,0,1,1.16-.56V150H201.93v.82a1.49,1.49,0,0,1,1,.4,2,2,0,0,1,.27,1.23,23.91,23.91,0,0,1-.59,4.27,45,45,0,0,1-1.27,5,7.49,7.49,0,0,1-1.22,2.6,1.65,1.65,0,0,1-1.15.53c-.51,0-.82-.36-.94-1.08h-1.58v3a6.63,6.63,0,0,0,2.05.3,3.56,3.56,0,0,0,2.4-.81,7.7,7.7,0,0,0,1.77-3.06,40.14,40.14,0,0,0,1.54-5.55,51.16,51.16,0,0,0,.94-6.16h2.73v12.09a4.68,4.68,0,0,1-.22,1.75c-.15.32-.57.56-1.27.73v.81h6.75Zm7.3-5.85h4.44l-2-6.95Zm4.8,1.44h-5.27l-.41,1.17a7.86,7.86,0,0,0-.28,1,3.93,3.93,0,0,0-.11,1,1.19,1.19,0,0,0,1.28,1.3v.81h-5.27V166a1.46,1.46,0,0,0,.8-.33,2.7,2.7,0,0,0,.63-.73,9,9,0,0,0,.61-1.35l5.14-13.72h3.3l4.07,13.83a10.16,10.16,0,0,0,.46,1.32,1.75,1.75,0,0,0,.48.62,2.06,2.06,0,0,0,.83.36v.81h-6.82V166a1.64,1.64,0,0,0,.95-.36,1,1,0,0,0,.31-.8,5.61,5.61,0,0,0-.08-.86c-.06-.31-.15-.7-.29-1.18Zm20.37-11.24a14.52,14.52,0,0,0-2.11-.45,17.22,17.22,0,0,0-2.26-.14,7.93,7.93,0,0,0-4.22,1.08,6.74,6.74,0,0,0-2.67,3.05,11.07,11.07,0,0,0-.91,4.66,12.63,12.63,0,0,0,.77,4.74,5.49,5.49,0,0,0,2.39,2.79,8.43,8.43,0,0,0,4.2.93,17.66,17.66,0,0,0,2.33-.15,23.56,23.56,0,0,0,2.48-.47v-3.74h-1.69a6.57,6.57,0,0,1-.59,1.71,2.29,2.29,0,0,1-.9.9,3.15,3.15,0,0,1-1.47.3,2.88,2.88,0,0,1-2.68-1.75,11.56,11.56,0,0,1-.92-5.18,12.07,12.07,0,0,1,1-5.55,3.15,3.15,0,0,1,2.94-1.87,2.21,2.21,0,0,1,1.68.66,4.17,4.17,0,0,1,.94,2.05h1.68v-3.57m15,0a14.52,14.52,0,0,0-2.11-.45,17,17,0,0,0-2.26-.14,8,8,0,0,0-4.22,1.08,6.74,6.74,0,0,0-2.67,3.05,11.23,11.23,0,0,0-.91,4.66,12.63,12.63,0,0,0,.77,4.74,5.51,5.51,0,0,0,2.4,2.79,8.36,8.36,0,0,0,4.19.93,17.66,17.66,0,0,0,2.33-.15,23.56,23.56,0,0,0,2.48-.47v-3.74h-1.69a6.22,6.22,0,0,1-.59,1.71,2.23,2.23,0,0,1-.9.9,3.15,3.15,0,0,1-1.47.3,2.88,2.88,0,0,1-2.68-1.75,11.56,11.56,0,0,1-.92-5.18,12.07,12.07,0,0,1,1-5.55,3.16,3.16,0,0,1,2.95-1.87,2.21,2.21,0,0,1,1.67.66,4.08,4.08,0,0,1,.94,2.05h1.68v-3.57m23.23,2.72v10.64a4,4,0,0,0,.24,1.66,1.64,1.64,0,0,0,1.1.63v.81h-6.48V166a1.65,1.65,0,0,0,1.09-.62,4,4,0,0,0,.23-1.67V153.07a4.06,4.06,0,0,0-.22-1.65,1.69,1.69,0,0,0-1.1-.63V150h6.48v.82a1.81,1.81,0,0,0-1.11.64,3.91,3.91,0,0,0-.23,1.65M269,158.63v6.71c2,.15,3.33-.07,4-.67a3.47,3.47,0,0,0,1-2.7,3.85,3.85,0,0,0-.76-2.52,3.49,3.49,0,0,0-2.76-.9C270,158.55,269.48,158.58,269,158.63Zm1.51-8.66v.82a1.73,1.73,0,0,0-1.23.58,3.57,3.57,0,0,0-.28,1.71v4c1.1-.1,2-.16,2.73-.16a7.14,7.14,0,0,1,4.58,1.21,4.55,4.55,0,0,1,1.47,3.74q0,4.91-6.44,4.9h-7.48V166a1.64,1.64,0,0,0,1.08-.62,3.81,3.81,0,0,0,.24-1.67V153.08a3.9,3.9,0,0,0-.23-1.66,1.64,1.64,0,0,0-1.09-.63V150Zm39.48,3.12a4,4,0,0,1,.23-1.67,1.65,1.65,0,0,1,1.08-.63V150h-6.44v.82a1.71,1.71,0,0,1,1.08.59,3.09,3.09,0,0,1,.23,1.42L300.28,161h-.08c.06-.59.09-1.41.09-2.43v-5.44a3.75,3.75,0,0,1,.23-1.65,1.74,1.74,0,0,1,1.1-.65V150h-6.48v.82a1.66,1.66,0,0,1,1.1.63,4,4,0,0,1,.22,1.66v10.64a4,4,0,0,1-.23,1.67,1.67,1.67,0,0,1-1.09.62v.81h6.48V166a1.62,1.62,0,0,1-1.1-.64,3.81,3.81,0,0,1-.23-1.65l5.86-8.14h.08c-.08.75-.11,1.86-.11,3.32v4.82a4.4,4.4,0,0,1-.21,1.71,1.67,1.67,0,0,1-1.1.58v.81h6.44V166a1.59,1.59,0,0,1-1.09-.62,4.07,4.07,0,0,1-.22-1.67Zm26.81,13.73V166a1.76,1.76,0,0,1-1.27-.7,23.44,23.44,0,0,1-1.41-3.07,25.82,25.82,0,0,0-1.28-2.77,3.7,3.7,0,0,0-1.18-1.22,4.72,4.72,0,0,0-2.06-.66v-.13a5.16,5.16,0,0,0,2.2-2.86,10.54,10.54,0,0,1,.94-1.93,1.3,1.3,0,0,1,1.1-.69c.56,0,.89.38,1,1.13h1.74v-3.05a5.05,5.05,0,0,0-1.77-.29,4.5,4.5,0,0,0-2.13.43,3.5,3.5,0,0,0-1.35,1.22,12,12,0,0,0-1.18,2.74,6.94,6.94,0,0,1-1.31,2.45,2.9,2.9,0,0,1-2.28.87h-.26v-4.4a3.71,3.71,0,0,1,.24-1.65,1.69,1.69,0,0,1,1.09-.64V150h-6.48v.82a1.66,1.66,0,0,1,1.1.63,3.9,3.9,0,0,1,.23,1.66v10.64a3.81,3.81,0,0,1-.24,1.67,1.67,1.67,0,0,1-1.09.62v.81h6.48V166a1.62,1.62,0,0,1-1.1-.64,4,4,0,0,1-.23-1.65v-4.9h.25a2.58,2.58,0,0,1,2.7,1.67c.27.58.69,1.68,1.26,3.28q.72,2,.9,2.43v.62Zm7.46-1.48c.48,0,1,0,1.67,0a5.59,5.59,0,0,0,1.94-.29,2.3,2.3,0,0,0,1.18-1,3.94,3.94,0,0,0,.42-2,4.83,4.83,0,0,0-.22-1.52,2.34,2.34,0,0,0-.67-1,2.63,2.63,0,0,0-1.07-.57,5.51,5.51,0,0,0-1.54-.18h-1.71Zm1.64-8a4.34,4.34,0,0,0,1.94-.35,2.43,2.43,0,0,0,1.06-1,3.71,3.71,0,0,0,.37-1.82,3,3,0,0,0-.39-1.63,2.21,2.21,0,0,0-1.13-.85,5.27,5.27,0,0,0-1.82-.26c-.57,0-1.13,0-1.67.06v5.87Zm3.84.65a5.61,5.61,0,0,1,2.63,1.57,3.59,3.59,0,0,1,.91,2.47,5.25,5.25,0,0,1-.41,2.15,3.66,3.66,0,0,1-1.26,1.5,5.8,5.8,0,0,1-2,.86,13,13,0,0,1-2.91.27h-7.6V166a3.33,3.33,0,0,0,.72-.27.89.89,0,0,0,.4-.39,1.87,1.87,0,0,0,.16-.64,9.09,9.09,0,0,0,0-1V153.08c0-.39,0-.71,0-1a1.63,1.63,0,0,0-.16-.65,1.15,1.15,0,0,0-.39-.4,3.24,3.24,0,0,0-.74-.27V150h8.08a15.16,15.16,0,0,1,2.26.14,6.15,6.15,0,0,1,2,.64,2.89,2.89,0,0,1,1.19,1.16,3.52,3.52,0,0,1,.44,1.79c0,1.86-1.12,3.25-3.36,4.19Zm6.78-8v.82a3,3,0,0,1,.73.27,1.09,1.09,0,0,1,.4.4,1.82,1.82,0,0,1,.16.65c0,.26,0,.58,0,1v10.64a9.09,9.09,0,0,1,0,1,1.67,1.67,0,0,1-.17.64.82.82,0,0,1-.39.39,3.79,3.79,0,0,1-.72.27v.81H368.6l.24-4.5h-1.7a10.93,10.93,0,0,1-.4,1.22,6,6,0,0,1-.36.72,2.28,2.28,0,0,1-.38.5,1.7,1.7,0,0,1-.45.37,1.75,1.75,0,0,1-.53.19,3.66,3.66,0,0,1-.72.06h-2.68v-6.59h1.63a1.78,1.78,0,0,1,.86.16,1.25,1.25,0,0,1,.51.53,5.25,5.25,0,0,1,.38,1.1h1.39v-5H365a4.67,4.67,0,0,1-.39,1.12,1.38,1.38,0,0,1-.51.51,2,2,0,0,1-.85.15h-1.63v-5.92h2.69a2.72,2.72,0,0,1,1.34.24,2.33,2.33,0,0,1,.68.65,7.64,7.64,0,0,1,.69,1.59h1.69V150Zm27.55.39a14.52,14.52,0,0,0-2.11-.45,17.22,17.22,0,0,0-2.26-.14,8,8,0,0,0-4.22,1.08,6.74,6.74,0,0,0-2.67,3.05,11.23,11.23,0,0,0-.91,4.66,12.63,12.63,0,0,0,.77,4.74,5.51,5.51,0,0,0,2.4,2.79,8.36,8.36,0,0,0,4.19.93,17.66,17.66,0,0,0,2.33-.15,23.56,23.56,0,0,0,2.48-.47v-3.74h-1.69a6.22,6.22,0,0,1-.59,1.71,2.23,2.23,0,0,1-.9.9,3.15,3.15,0,0,1-1.47.3,2.88,2.88,0,0,1-2.68-1.75,11.56,11.56,0,0,1-.92-5.18,12.07,12.07,0,0,1,1-5.55,3.16,3.16,0,0,1,3-1.87,2.21,2.21,0,0,1,1.67.66,4.08,4.08,0,0,1,.94,2.05H384v-3.57m13.49,16.46V166a2.76,2.76,0,0,1-.69-.17,1.37,1.37,0,0,1-.4-.24,1.08,1.08,0,0,1-.24-.33,1.59,1.59,0,0,1-.13-.55,8.5,8.5,0,0,1,0-1v-12.3h.89a4.65,4.65,0,0,1,.82.05,2,2,0,0,1,.52.17,1.27,1.27,0,0,1,.4.3,2.21,2.21,0,0,1,.35.46,3.52,3.52,0,0,1,.3.67c.09.27.22.67.37,1.23h1.7V150H386.82v4.33h1.7c.09-.37.2-.76.34-1.18a3.51,3.51,0,0,1,.5-1,1.79,1.79,0,0,1,.69-.54,2.85,2.85,0,0,1,1.14-.17h1v12.3c0,.4,0,.73,0,1a1.77,1.77,0,0,1-.19.66,1,1,0,0,1-.45.4,3.59,3.59,0,0,1-.82.23v.81Zm26.84-13.74v10.64a4,4,0,0,0,.24,1.66,1.64,1.64,0,0,0,1.1.63v.81h-6.48V166a1.65,1.65,0,0,0,1.09-.62,4,4,0,0,0,.23-1.67V153.07a4.06,4.06,0,0,0-.22-1.65,1.69,1.69,0,0,0-1.1-.63V150h6.48v.82a1.78,1.78,0,0,0-1.11.64,3.91,3.91,0,0,0-.23,1.65m-14.91,5.55v6.71c2,.15,3.33-.07,4-.67a3.47,3.47,0,0,0,1-2.7,3.85,3.85,0,0,0-.76-2.52,3.49,3.49,0,0,0-2.76-.9C410.45,158.55,410,158.58,409.44,158.63ZM411,150v.82a1.73,1.73,0,0,0-1.23.58,3.57,3.57,0,0,0-.28,1.71v4c1.1-.1,2-.16,2.73-.16a7.14,7.14,0,0,1,4.58,1.21,4.55,4.55,0,0,1,1.47,3.74q0,4.91-6.44,4.9H404.3V166a1.64,1.64,0,0,0,1.08-.62,3.81,3.81,0,0,0,.24-1.67V153.08a3.9,3.9,0,0,0-.23-1.66,1.64,1.64,0,0,0-1.09-.63V150Z"/></svg>